<?xml version="1.0" standalone="no"?>
<!DOCTYPE svg PUBLIC "-//W3C//DTD SVG 20010904//EN"
 "http://www.w3.org/TR/2001/REC-SVG-20010904/DTD/svg10.dtd">
<svg version="1.0" xmlns="http://www.w3.org/2000/svg"
 width="200.000000pt" height="200.000000pt" viewBox="0 0 200.000000 200.000000"
 preserveAspectRatio="xMidYMid meet">

<g transform="translate(0.000000,200.000000) scale(0.100000,-0.100000)"
fill="#000000" stroke="none">
<path d="M252 1921 c-73 -25 -122 -67 -157 -136 -30 -58 -30 -61 -33 -241 l-4
-183 26 -26 c31 -31 50 -32 81 0 25 24 25 27 25 197 0 193 7 218 72 258 30 18
51 20 206 20 170 0 173 0 197 25 14 13 25 31 25 40 0 9 -11 27 -25 40 -24 25
-27 25 -192 25 -136 -1 -178 -4 -221 -19z"/>
<path d="M1335 1916 c-31 -31 -32 -50 0 -81 24 -25 27 -25 197 -25 193 0 218
-7 258 -72 18 -30 20 -51 20 -206 0 -170 0 -173 25 -197 13 -14 31 -25 40 -25
9 0 27 11 40 25 25 24 25 27 25 188 0 186 -11 241 -63 309 -20 26 -55 54 -92
73 -58 30 -61 30 -241 33 l-183 4 -26 -26z"/>
<path d="M867 1351 c-101 -40 -190 -134 -223 -233 -25 -76 -17 -207 18 -278
35 -71 107 -143 178 -178 49 -24 66 -27 160 -27 94 0 111 3 160 27 71 35 143
107 178 178 24 49 27 66 27 160 0 94 -3 111 -27 160 -15 31 -49 77 -75 103
-75 75 -139 101 -253 104 -75 2 -105 -1 -143 -16z m218 -118 c92 -31 165 -134
165 -233 0 -60 -30 -130 -75 -175 -98 -98 -252 -98 -350 0 -98 98 -98 252 0
350 69 70 164 91 260 58z"/>
<path d="M84 665 l-26 -26 4 -183 c3 -180 3 -183 33 -241 19 -37 47 -72 73
-92 68 -52 123 -63 309 -63 161 0 164 0 188 25 14 13 25 31 25 40 0 9 -11 27
-25 40 -24 25 -27 25 -197 25 -155 0 -176 2 -206 20 -65 40 -72 65 -72 258 0
170 0 173 -25 197 -31 32 -50 31 -81 0z"/>
<path d="M1835 665 c-25 -24 -25 -27 -25 -197 0 -193 -7 -218 -72 -258 -30
-18 -51 -20 -206 -20 -170 0 -173 0 -197 -25 -14 -13 -25 -31 -25 -40 0 -9 11
-27 25 -40 24 -25 27 -25 188 -25 186 0 241 11 309 63 26 20 54 55 73 92 30
58 30 61 33 241 l4 183 -26 26 c-31 31 -50 32 -81 0z"/>
</g>
</svg>
