<?xml version="1.0" standalone="no"?>
<!DOCTYPE svg PUBLIC "-//W3C//DTD SVG 20010904//EN"
 "http://www.w3.org/TR/2001/REC-SVG-20010904/DTD/svg10.dtd">
<svg version="1.0" xmlns="http://www.w3.org/2000/svg"
 width="200.000000pt" height="200.000000pt" viewBox="0 0 200.000000 200.000000"
 preserveAspectRatio="xMidYMid meet">

<g transform="translate(0.000000,200.000000) scale(0.100000,-0.100000)"
fill="#000000" stroke="none">
<path d="M708 1960 c-87 -14 -205 -57 -283 -102 -91 -53 -230 -192 -283 -283
-268 -457 -22 -1043 493 -1175 55 -14 113 -21 185 -21 176 -1 304 36 442 127
40 27 77 51 82 53 4 2 128 -116 275 -263 147 -146 275 -266 284 -266 23 0 67
44 67 67 0 9 -120 137 -266 284 -147 147 -265 271 -263 275 2 5 26 42 53 82
91 138 128 266 127 442 -1 307 -166 566 -450 709 -123 63 -323 93 -463 71z
m266 -135 c344 -73 580 -430 512 -775 -78 -400 -484 -640 -868 -513 -329 109
-524 463 -438 797 89 351 438 566 794 491z"/>
</g>
</svg>
